<svg xmlns="http://www.w3.org/2000/svg" xmlns:xlink="http://www.w3.org/1999/xlink" xmlns:lucid="lucid" width="523.94" height="832.83"><g transform="translate(-620 -100.00000000000001)" lucid:page-tab-id="0_0"><path d="M645 608a8 8 0 0 1 8-8h144a8 8 0 0 1 8 8v44a8 8 0 0 1-8 8H653a8 8 0 0 1-8-8z" stroke="#e81313" stroke-width="4" fill="#fff"/><use xlink:href="#a" transform="matrix(1,0,0,1,650,605) translate(-3.166666666666643 29)"/><path d="M1073 852.83c17.67 0 32 13.43 32 30s-14.33 30-32 30h-96c-17.67 0-32-13.43-32-30s14.33-30 32-30z" stroke="#000" stroke-opacity="0" stroke-width="2" fill="#c7e8ac"/><use xlink:href="#b" transform="matrix(1,0,0,1,950,857.8333333333333) translate(13.472222222222236 28.5)"/><path d="M640 128a8 8 0 0 1 8-8h144a8 8 0 0 1 8 8v90a8 8 0 0 1-8 8H648a8 8 0 0 1-8-8z" fill="#fff"/><path d="M642 128c0 1.1-.9 2-2 2s-2-.9-2-2 .9-2 2-2 2 .9 2 2zm6.75-7.9c0 1.1-.9 2-2 2s-2-.9-2-2 .9-2 2-2 2 .9 2 2zm8.07 0c0 1.1-.9 2-2 2s-2-.9-2-2 .9-2 2-2 2 .9 2 2zm8.07 0c0 1.1-.9 2-2 2-1.12 0-2-.9-2-2 0-1.12.88-2 2-2 1.1 0 2 .88 2 2zm8.06-.02c0 1.1-.9 2-2 2s-2-.9-2-2 .9-2 2-2 2 .9 2 2zm8.07 0c0 1.1-.9 2-2 2s-2-.9-2-2 .9-2 2-2 2 .9 2 2zm8.07 0c0 1.1-.9 2-2 2s-2-.9-2-2 .9-2 2-2 2 .9 2 2zm8.07 0c0 1.1-.9 2-2 2s-2-.9-2-2c0-1.12.9-2 2-2s2 .88 2 2zm8.07-.02c0 1.1-.9 2-2 2s-2-.9-2-2 .9-2 2-2 2 .9 2 2zm8.06 0c0 1.1-.9 2-2 2s-2-.9-2-2 .9-2 2-2 2 .9 2 2zm8.07 0c0 1.1-.9 2-2 2s-2-.9-2-2c0-1.12.9-2 2-2s2 .88 2 2zm8.07-.02c0 1.1-.9 2-2 2s-2-.9-2-2 .9-2 2-2 2 .9 2 2zm8.07 0c0 1.1-.88 2-2 2-1.1 0-2-.9-2-2s.9-2 2-2c1.12 0 2 .9 2 2zm8.08 0c0 1.1-.9 2-2 2s-2-.9-2-2 .9-2 2-2 2 .9 2 2zm8.07 0c0 1.1-.9 2-2 2s-2-.9-2-2c0-1.12.9-2 2-2s2 .88 2 2zm8.07-.02c0 1.1-.9 2-2 2s-2-.9-2-2 .9-2 2-2 2 .9 2 2zm8.07 0c0 1.1-.9 2-2 2s-2-.9-2-2 .9-2 2-2 2 .9 2 2zm8.06 0c0 1.1-.9 2-2 2s-2-.9-2-2 .9-2 2-2 2 .9 2 2zm8.07 0c0 1.1-.9 2-2 2s-2-.9-2-2c0-1.12.9-2 2-2s2 .88 2 2zM794 120c0 1.1-.9 2-2 2s-2-.9-2-2 .9-2 2-2 2 .9 2 2zm7.9 6.75c0 1.1-.9 2-2 2s-2-.9-2-2 .9-2 2-2 2 .9 2 2zm0 8.3c0 1.1-.9 2-2 2s-2-.9-2-2 .9-2 2-2 2 .9 2 2zm.02 8.3c0 1.1-.9 2-2 2s-2-.9-2-2 .9-2 2-2 2 .9 2 2zm0 8.3c0 1.1-.9 2-2 2s-2-.9-2-2c0-1.12.9-2 2-2s2 .88 2 2zm.02 8.28c0 1.1-.9 2-2 2s-2-.9-2-2 .9-2 2-2 2 .9 2 2zm0 8.3c0 1.1-.9 2-2 2s-2-.9-2-2 .9-2 2-2 2 .9 2 2zm.02 8.3c0 1.1-.9 2-2 2s-2-.9-2-2 .9-2 2-2 2 .9 2 2zm0 8.3c0 1.1-.9 2-2 2s-2-.9-2-2c0-1.12.9-2 2-2s2 .88 2 2zm0 8.28c0 1.12-.88 2-2 2-1.1 0-2-.88-2-2 0-1.1.9-2 2-2 1.12 0 2 .9 2 2zm.02 8.3c0 1.1-.9 2-2 2s-2-.9-2-2 .9-2 2-2 2 .9 2 2zm0 8.3c0 1.1-.88 2-2 2-1.1 0-2-.9-2-2s.9-2 2-2c1.12 0 2 .9 2 2zm.02 8.3c0 1.1-.9 2-2 2s-2-.9-2-2 .9-2 2-2 2 .9 2 2zm-6.75 7.9c0 1.1-.9 2-2 2s-2-.9-2-2 .9-2 2-2 2 .9 2 2zm-8.07 0c0 1.1-.9 2-2 2s-2-.9-2-2 .9-2 2-2 2 .9 2 2zm-8.07 0c0 1.12-.88 2-2 2-1.1 0-2-.88-2-2 0-1.1.9-2 2-2 1.12 0 2 .9 2 2zm-8.06.02c0 1.1-.9 2-2 2s-2-.9-2-2 .9-2 2-2 2 .9 2 2zm-8.07 0c0 1.1-.9 2-2 2s-2-.9-2-2 .9-2 2-2 2 .9 2 2zm-8.07 0c0 1.1-.9 2-2 2s-2-.9-2-2 .9-2 2-2 2 .9 2 2zm-8.07 0c0 1.12-.9 2-2 2s-2-.88-2-2c0-1.1.9-2 2-2s2 .9 2 2zm-8.07.02c0 1.1-.9 2-2 2s-2-.9-2-2 .9-2 2-2 2 .9 2 2zm-8.06 0c0 1.1-.9 2-2 2s-2-.9-2-2 .9-2 2-2 2 .9 2 2zm-8.07 0c0 1.12-.9 2-2 2s-2-.88-2-2c0-1.1.9-2 2-2s2 .9 2 2zm-8.07.02c0 1.1-.9 2-2 2s-2-.9-2-2 .9-2 2-2 2 .9 2 2zm-8.07 0c0 1.1-.9 2-2 2-1.12 0-2-.9-2-2s.88-2 2-2c1.1 0 2 .9 2 2zm-8.08 0c0 1.1-.9 2-2 2s-2-.9-2-2 .9-2 2-2 2 .9 2 2zm-8.07 0c0 1.12-.9 2-2 2s-2-.88-2-2c0-1.1.9-2 2-2s2 .9 2 2zm-8.07.02c0 1.1-.9 2-2 2s-2-.9-2-2 .9-2 2-2 2 .9 2 2zm-8.07 0c0 1.1-.9 2-2 2s-2-.9-2-2 .9-2 2-2 2 .9 2 2zm-8.06 0c0 1.1-.9 2-2 2s-2-.9-2-2 .9-2 2-2 2 .9 2 2zm-8.07 0c0 1.12-.9 2-2 2s-2-.88-2-2c0-1.1.9-2 2-2s2 .9 2 2zM650 226c0 1.1-.9 2-2 2s-2-.9-2-2 .9-2 2-2 2 .9 2 2zm-7.9-6.75c0 1.1-.9 2-2 2s-2-.9-2-2 .9-2 2-2 2 .9 2 2zm0-8.3c0 1.1-.9 2-2 2s-2-.9-2-2 .9-2 2-2 2 .9 2 2zm-.02-8.3c0 1.1-.9 2-2 2s-2-.9-2-2 .9-2 2-2 2 .9 2 2zm0-8.3c0 1.12-.9 2-2 2s-2-.88-2-2c0-1.1.9-2 2-2s2 .9 2 2zm-.02-8.28c0 1.1-.9 2-2 2s-2-.9-2-2 .9-2 2-2 2 .9 2 2zm0-8.3c0 1.1-.9 2-2 2s-2-.9-2-2 .9-2 2-2 2 .9 2 2zm-.02-8.3c0 1.1-.9 2-2 2s-2-.9-2-2 .9-2 2-2 2 .9 2 2zm0-8.3c0 1.12-.9 2-2 2s-2-.88-2-2c0-1.1.9-2 2-2s2 .9 2 2zm0-8.28c0 1.1-.9 2-2 2-1.12 0-2-.9-2-2 0-1.12.88-2 2-2 1.1 0 2 .88 2 2zm-.02-8.3c0 1.1-.9 2-2 2s-2-.9-2-2 .9-2 2-2 2 .9 2 2zm0-8.3c0 1.1-.9 2-2 2-1.12 0-2-.9-2-2s.88-2 2-2c1.1 0 2 .9 2 2zM642 128c0 1.1-.9 2-2 2s-2-.9-2-2 .9-2 2-2 2 .9 2 2z" fill="#282c33"/><use xlink:href="#c" transform="matrix(1,0,0,1,645,125.00000000000001) translate(27.833333333333357 15.999999999999995)"/><use xlink:href="#d" transform="matrix(1,0,0,1,645,125.00000000000001) translate(26.222222222222243 39.999999999999986)"/><use xlink:href="#e" transform="matrix(1,0,0,1,645,125.00000000000001) translate(35.1388888888889 63.99999999999998)"/><use xlink:href="#f" transform="matrix(1,0,0,1,645,125.00000000000001) translate(30.694444444444457 87.99999999999997)"/><path d="M775.23 288a8 8 0 0 1 8-8h204a8 8 0 0 1 8 8v44a8 8 0 0 1-8 8h-204a8 8 0 0 1-8-8z" stroke="#c54242" stroke-width="4" fill="#fff"/><use xlink:href="#g" transform="matrix(1,0,0,1,780.2274239245135,284.99999999999994) translate(20.7777777777778 28.499999999999993)"/><use xlink:href="#h" transform="matrix(1,0,0,1,780.2274239245135,284.99999999999994) translate(98.3888888888889 28.499999999999993)"/><path d="M802.95 173h76.28a6 6 0 0 1 6 6v80.55" stroke="#5e5e5e" stroke-width="2" fill="none"/><path d="M802.98 174h-1.03v-2h1.03z" stroke="#5e5e5e" stroke-width=".05" fill="#5e5e5e"/><path d="M885.23 274.8l-4.64-14.25h9.26z" stroke="#5e5e5e" stroke-width="2" fill="#5e5e5e"/><path d="M885.23 462.95V524a6 6 0 0 0 6 6h125.57a6 6 0 0 1 6 6v43.55" stroke="#5e5e5e" stroke-width="2" fill="none"/><path d="M886.23 462.98h-2v-1.03h2z" stroke="#5e5e5e" stroke-width=".05" fill="#5e5e5e"/><path d="M1022.8 594.8l-4.63-14.25h9.27z" stroke="#5e5e5e" stroke-width="2" fill="#5e5e5e"/><path d="M640 408.73a8 8 0 0 1 8-8h144a8 8 0 0 1 8 8V492a8 8 0 0 1-8 8H648a8 8 0 0 1-8-8z" fill="#fff"/><path d="M642 408.73c0 1.1-.9 2-2 2s-2-.9-2-2 .9-2 2-2 2 .9 2 2zm6.75-7.9c0 1.1-.9 2-2 2s-2-.9-2-2 .9-2 2-2 2 .9 2 2zm8.07 0c0 1.1-.9 2-2 2s-2-.9-2-2 .9-2 2-2 2 .9 2 2zm8.07 0c0 1.1-.9 2-2 2-1.12 0-2-.9-2-2s.88-2 2-2c1.1 0 2 .9 2 2zm8.06-.02c0 1.12-.9 2-2 2s-2-.88-2-2c0-1.1.9-2 2-2s2 .9 2 2zm8.07 0c0 1.1-.9 2-2 2s-2-.9-2-2 .9-2 2-2 2 .9 2 2zm8.07 0c0 1.1-.9 2-2 2s-2-.9-2-2 .9-2 2-2 2 .9 2 2zm8.07 0c0 1.1-.9 2-2 2s-2-.9-2-2 .9-2 2-2 2 .9 2 2zm8.07 0c0 1.1-.9 2-2 2s-2-.9-2-2 .9-2 2-2 2 .9 2 2zm8.06 0c0 1.1-.9 2-2 2s-2-.9-2-2c0-1.12.9-2 2-2s2 .88 2 2zm8.07-.02c0 1.1-.9 2-2 2s-2-.9-2-2 .9-2 2-2 2 .9 2 2zm8.07 0c0 1.1-.9 2-2 2s-2-.9-2-2 .9-2 2-2 2 .9 2 2zm8.07 0c0 1.1-.88 2-2 2-1.1 0-2-.9-2-2s.9-2 2-2c1.12 0 2 .9 2 2zm8.08 0c0 1.1-.9 2-2 2s-2-.9-2-2c0-1.12.9-2 2-2s2 .88 2 2zm8.07-.02c0 1.1-.9 2-2 2s-2-.9-2-2 .9-2 2-2 2 .9 2 2zm8.07 0c0 1.1-.9 2-2 2s-2-.9-2-2 .9-2 2-2 2 .9 2 2zm8.07 0c0 1.1-.9 2-2 2s-2-.9-2-2c0-1.12.9-2 2-2s2 .88 2 2zm8.06-.02c0 1.1-.9 2-2 2s-2-.9-2-2 .9-2 2-2 2 .9 2 2zm8.07 0c0 1.1-.9 2-2 2s-2-.9-2-2 .9-2 2-2 2 .9 2 2zm8.07 0c0 1.1-.9 2-2 2s-2-.9-2-2 .9-2 2-2 2 .9 2 2zm7.9 6.74c0 1.1-.9 2-2 2s-2-.9-2-2 .9-2 2-2 2 .9 2 2zm0 7.68c0 1.1-.9 2-2 2s-2-.9-2-2 .9-2 2-2 2 .9 2 2zm.02 7.7c0 1.1-.9 2-2 2s-2-.9-2-2c0-1.12.9-2 2-2s2 .88 2 2zm0 7.67c0 1.1-.9 2-2 2s-2-.9-2-2 .9-2 2-2 2 .9 2 2zm.02 7.7c0 1.1-.9 2-2 2s-2-.9-2-2c0-1.12.9-2 2-2s2 .88 2 2zm0 7.67c0 1.1-.9 2-2 2s-2-.9-2-2 .9-2 2-2 2 .9 2 2zm.02 7.68c0 1.1-.9 2-2 2s-2-.9-2-2 .9-2 2-2 2 .9 2 2zm0 7.7c0 1.1-.9 2-2 2s-2-.9-2-2c0-1.12.9-2 2-2s2 .88 2 2zm0 7.67c0 1.1-.88 2-2 2-1.1 0-2-.9-2-2s.9-2 2-2c1.12 0 2 .9 2 2zm.02 7.68c0 1.1-.9 2-2 2s-2-.9-2-2 .9-2 2-2 2 .9 2 2zm0 7.7c0 1.1-.88 2-2 2-1.1 0-2-.9-2-2 0-1.12.9-2 2-2 1.12 0 2 .88 2 2zM802 492c0 1.1-.9 2-2 2s-2-.9-2-2 .9-2 2-2 2 .9 2 2zm-6.75 7.9c0 1.1-.9 2-2 2s-2-.9-2-2 .9-2 2-2 2 .9 2 2zm-8.07 0c0 1.1-.9 2-2 2s-2-.9-2-2 .9-2 2-2 2 .9 2 2zm-8.07 0c0 1.12-.88 2-2 2-1.1 0-2-.88-2-2 0-1.1.9-2 2-2 1.12 0 2 .9 2 2zm-8.06.02c0 1.1-.9 2-2 2s-2-.9-2-2 .9-2 2-2 2 .9 2 2zm-8.07 0c0 1.1-.9 2-2 2s-2-.9-2-2 .9-2 2-2 2 .9 2 2zm-8.07 0c0 1.1-.9 2-2 2s-2-.9-2-2 .9-2 2-2 2 .9 2 2zm-8.07 0c0 1.12-.9 2-2 2s-2-.88-2-2c0-1.1.9-2 2-2s2 .9 2 2zm-8.07.02c0 1.1-.9 2-2 2s-2-.9-2-2 .9-2 2-2 2 .9 2 2zm-8.06 0c0 1.1-.9 2-2 2s-2-.9-2-2 .9-2 2-2 2 .9 2 2zm-8.07 0c0 1.12-.9 2-2 2s-2-.88-2-2c0-1.1.9-2 2-2s2 .9 2 2zm-8.07.02c0 1.1-.9 2-2 2s-2-.9-2-2 .9-2 2-2 2 .9 2 2zm-8.07 0c0 1.1-.9 2-2 2-1.12 0-2-.9-2-2s.88-2 2-2c1.1 0 2 .9 2 2zm-8.08 0c0 1.1-.9 2-2 2s-2-.9-2-2 .9-2 2-2 2 .9 2 2zm-8.07 0c0 1.12-.9 2-2 2s-2-.88-2-2c0-1.1.9-2 2-2s2 .9 2 2zm-8.07.02c0 1.1-.9 2-2 2s-2-.9-2-2 .9-2 2-2 2 .9 2 2zm-8.07 0c0 1.1-.9 2-2 2s-2-.9-2-2 .9-2 2-2 2 .9 2 2zm-8.06 0c0 1.1-.9 2-2 2s-2-.9-2-2 .9-2 2-2 2 .9 2 2zm-8.07 0c0 1.12-.9 2-2 2s-2-.88-2-2c0-1.1.9-2 2-2s2 .9 2 2zM650 500c0 1.1-.9 2-2 2s-2-.9-2-2 .9-2 2-2 2 .9 2 2zm-7.9-6.75c0 1.1-.9 2-2 2s-2-.9-2-2 .9-2 2-2 2 .9 2 2zm0-7.68c0 1.1-.9 2-2 2s-2-.9-2-2 .9-2 2-2 2 .9 2 2zm-.02-7.7c0 1.12-.9 2-2 2s-2-.88-2-2c0-1.1.9-2 2-2s2 .9 2 2zm0-7.67c0 1.1-.9 2-2 2s-2-.9-2-2 .9-2 2-2 2 .9 2 2zm-.02-7.68c0 1.1-.9 2-2 2s-2-.9-2-2 .9-2 2-2 2 .9 2 2zm0-7.7c0 1.12-.9 2-2 2s-2-.88-2-2c0-1.1.9-2 2-2s2 .9 2 2zm-.02-7.67c0 1.1-.9 2-2 2s-2-.9-2-2 .9-2 2-2 2 .9 2 2zm0-7.68c0 1.1-.9 2-2 2s-2-.9-2-2 .9-2 2-2 2 .9 2 2zm0-7.7c0 1.12-.9 2-2 2-1.12 0-2-.88-2-2 0-1.1.88-2 2-2 1.1 0 2 .9 2 2zm-.02-7.67c0 1.1-.9 2-2 2s-2-.9-2-2 .9-2 2-2 2 .9 2 2zm0-7.68c0 1.1-.9 2-2 2-1.12 0-2-.9-2-2s.88-2 2-2c1.1 0 2 .9 2 2zm-.02-7.7c0 1.12-.9 2-2 2s-2-.88-2-2c0-1.1.9-2 2-2s2 .9 2 2z" fill="#282c33"/><use xlink:href="#c" transform="matrix(1,0,0,1,645,405.7328200221225) translate(27.833333333333357 24.437499999999993)"/><use xlink:href="#d" transform="matrix(1,0,0,1,645,405.7328200221225) translate(26.222222222222243 48.437499999999986)"/><use xlink:href="#i" transform="matrix(1,0,0,1,645,405.7328200221225) translate(3.6111111111111427 72.43749999999999)"/><path d="M945 778.13a8 8 0 0 1 8-8h144a8 8 0 0 1 8 8v29.4a8 8 0 0 1-8 8H953a8 8 0 0 1-8-8z" stroke="#c54242" stroke-width="4" fill="#fff"/><use xlink:href="#j" transform="matrix(1,0,0,1,950,775.1335697683104) translate(3.5277777777777857 22.75)"/><path d="M921.67 608a8 8 0 0 1 8-8h186.27a8 8 0 0 1 8 8v24a8 8 0 0 1-8 8H929.67a8 8 0 0 1-8-8z" stroke="#c54242" stroke-width="4" fill="#fff"/><use xlink:href="#k" transform="matrix(1,0,0,1,926.6666666666666,605) translate(2.944444444444457 19.75)"/><use xlink:href="#l" transform="matrix(1,0,0,1,926.6666666666666,605) translate(77.11111111111111 19.75)"/><path d="M815 408a8 8 0 0 1 8-8h124a8 8 0 0 1 8 8v44a8 8 0 0 1-8 8H823a8 8 0 0 1-8-8z" stroke="#c54242" stroke-width="4" fill="#fff"/><use xlink:href="#m" transform="matrix(1,0,0,1,820,405) translate(10.694444444444457 28.5)"/><path d="M885.23 342.95v36.6" stroke="#282c33" stroke-width="2" fill="none"/><path d="M886.23 342.98h-2v-1.03h2z" stroke="#282c33" stroke-width=".05" fill="#282c33"/><path d="M885.23 394.8l-4.64-14.25h9.26z" stroke="#282c33" stroke-width="2" fill="#282c33"/><path d="M720 228.95v151.33" stroke="#282c33" stroke-width="2" fill="none"/><path d="M721 228.98h-2v-1.03h2z" stroke="#282c33" stroke-width=".05" fill="#282c33"/><path d="M720 395.55l-4.64-14.27h9.28z" stroke="#282c33" stroke-width="2" fill="#282c33"/><path d="M885.23 342.95v21.42a6 6 0 0 1-6 6H726a6 6 0 0 0-6 6v3.9" stroke="#282c33" stroke-width="2" fill="none"/><path d="M886.23 342.98h-2v-1.03h2z" stroke="#282c33" stroke-width=".05" fill="#282c33"/><path d="M720 395.55l-4.64-14.27h9.28z" stroke="#282c33" stroke-width="2" fill="#282c33"/><path d="M885 462.95V524a6 6 0 0 1-6 6H731a6 6 0 0 0-6 6v43.55" stroke="#282c33" stroke-width="2" fill="none"/><path d="M886 462.98h-2v-1.03h2z" stroke="#282c33" stroke-width=".05" fill="#282c33"/><path d="M725 594.8l-4.64-14.25h9.28z" stroke="#282c33" stroke-width="2" fill="#282c33"/><path d="M720 502.95v76.6" stroke="#282c33" stroke-width="2" fill="none"/><path d="M721 502.98h-2v-1.03h2z" stroke="#282c33" stroke-width=".05" fill="#282c33"/><path d="M720 594.82l-4.64-14.27h9.28z" stroke="#282c33" stroke-width="2" fill="#282c33"/><path d="M955 680.83a8 8 0 0 1 8-8h124a8 8 0 0 1 8 8v44a8 8 0 0 1-8 8H963a8 8 0 0 1-8-8z" stroke="#c54242" stroke-width="4" fill="#fff"/><use xlink:href="#n" transform="matrix(1,0,0,1,960,677.8333333333333) translate(32.277777777777786 15.999999999999998)"/><use xlink:href="#o" transform="matrix(1,0,0,1,960,677.8333333333333) translate(8.527777777777786 39.99999999999999)"/><path d="M1022.8 642.45v12.05" stroke="#3a414a" fill="none"/><path d="M1023.3 642.46h-1v-.5h1z" stroke="#3a414a" stroke-width=".05" fill="#3a414a"/><path d="M1022.8 669.26l-4.63-14.26h9.27z" stroke="#3a414a" fill="#3a414a"/><path d="M1025 735.28v16.52" stroke="#3a414a" fill="none"/><path d="M1025.5 735.3h-1v-.52h1z" stroke="#3a414a" stroke-width=".05" fill="#3a414a"/><path d="M1025 766.56l-4.64-14.26h9.28z" stroke="#3a414a" fill="#3a414a"/><path d="M1025 817.98v18.47" stroke="#3a414a" fill="none"/><path d="M1025.5 818h-1v-.52h1z" stroke="#3a414a" stroke-width=".05" fill="#3a414a"/><path d="M1025 851.22l-4.64-14.27h9.28z" stroke="#3a414a" fill="#3a414a"/><defs><path fill="#333" d="M230 0l2-204L168 0h-37L68-204 70 0H24v-248h70l56 185 57-185h69V0h-46" id="p"/><path fill="#333" d="M133-34C117-15 103 5 69 4 32 3 11-16 11-54c-1-60 55-63 116-61 1-26-3-47-28-47-18 1-26 9-28 27l-52-2c7-38 36-58 82-57s74 22 75 68l1 82c-1 14 12 18 25 15v27c-30 8-71 5-69-32zm-48 3c29 0 43-24 42-57-32 0-66-3-65 30 0 17 8 27 23 27" id="q"/><path fill="#333" d="M135-194c53 0 70 44 70 98 0 56-19 98-73 100-31 1-45-17-59-34 3 33 2 69 2 105H25l-1-265h48c2 10 0 23 3 31 11-24 29-35 60-35zM114-30c33 0 39-31 40-66 0-38-9-64-40-64-56 0-55 130 0 130" id="r"/><path fill="#333" d="M136-208V0H84v-208H4v-40h212v40h-80" id="s"/><path fill="#333" d="M135-150c-39-12-60 13-60 57V0H25l-1-190h47c2 13-1 29 3 40 6-28 27-53 61-41v41" id="t"/><path fill="#333" d="M135-194c87-1 58 113 63 194h-50c-7-57 23-157-34-157-59 0-34 97-39 157H25l-1-190h47c2 12-1 28 3 38 12-26 28-41 61-42" id="u"/><path fill="#333" d="M137-138c1-29-70-34-71-4 15 46 118 7 119 86 1 83-164 76-172 9l43-7c4 19 20 25 44 25 33 8 57-30 24-41C81-84 22-81 20-136c-2-80 154-74 161-7" id="v"/><path fill="#333" d="M121-226c-27-7-43 5-38 36h38v33H83V0H34v-157H6v-33h28c-9-59 32-81 87-68v32" id="w"/><path fill="#333" d="M110-194c64 0 96 36 96 99 0 64-35 99-97 99-61 0-95-36-95-99 0-62 34-99 96-99zm-1 164c35 0 45-28 45-65 0-40-10-65-43-65-34 0-45 26-45 65 0 36 10 65 43 65" id="x"/><path fill="#333" d="M220-157c-53 9-28 100-34 157h-49v-107c1-27-5-49-29-50C55-147 81-57 75 0H25l-1-190h47c2 12-1 28 3 38 10-53 101-56 108 0 13-22 24-43 59-42 82 1 51 116 57 194h-49v-107c-1-25-5-48-29-50" id="y"/><path fill="#333" d="M185-48c-13 30-37 53-82 52C43 2 14-33 14-96s30-98 90-98c62 0 83 45 84 108H66c0 31 8 55 39 56 18 0 30-7 34-22zm-45-69c5-46-57-63-70-21-2 6-4 13-4 21h74" id="z"/><g id="a"><use transform="matrix(0.055555555555555546,0,0,0.055555555555555546,0,0)" xlink:href="#p"/><use transform="matrix(0.055555555555555546,0,0,0.055555555555555546,16.611111111111107,0)" xlink:href="#q"/><use transform="matrix(0.055555555555555546,0,0,0.055555555555555546,27.722222222222214,0)" xlink:href="#r"/><use transform="matrix(0.055555555555555546,0,0,0.055555555555555546,39.88888888888888,0)" xlink:href="#s"/><use transform="matrix(0.055555555555555546,0,0,0.055555555555555546,50.94444444444443,0)" xlink:href="#t"/><use transform="matrix(0.055555555555555546,0,0,0.055555555555555546,58.722222222222214,0)" xlink:href="#q"/><use transform="matrix(0.055555555555555546,0,0,0.055555555555555546,69.83333333333331,0)" xlink:href="#u"/><use transform="matrix(0.055555555555555546,0,0,0.055555555555555546,81.99999999999997,0)" xlink:href="#v"/><use transform="matrix(0.055555555555555546,0,0,0.055555555555555546,93.11111111111109,0)" xlink:href="#w"/><use transform="matrix(0.055555555555555546,0,0,0.055555555555555546,99.7222222222222,0)" xlink:href="#x"/><use transform="matrix(0.055555555555555546,0,0,0.055555555555555546,111.88888888888886,0)" xlink:href="#t"/><use transform="matrix(0.055555555555555546,0,0,0.055555555555555546,119.66666666666661,0)" xlink:href="#y"/><use transform="matrix(0.055555555555555546,0,0,0.055555555555555546,137.4444444444444,0)" xlink:href="#z"/><use transform="matrix(0.055555555555555546,0,0,0.055555555555555546,148.55555555555551,0)" xlink:href="#t"/></g><path fill="#333" d="M63-220v92h138v28H63V0H30v-248h175v28H63" id="A"/><path fill="#333" d="M100-194c63 0 86 42 84 106H49c0 40 14 67 53 68 26 1 43-12 49-29l28 8c-11 28-37 45-77 45C44 4 14-33 15-96c1-61 26-98 85-98zm52 81c6-60-76-77-97-28-3 7-6 17-6 28h103" id="B"/><path fill="#333" d="M141-36C126-15 110 5 73 4 37 3 15-17 15-53c-1-64 63-63 125-63 3-35-9-54-41-54-24 1-41 7-42 31l-33-3c5-37 33-52 76-52 45 0 72 20 72 64v82c-1 20 7 32 28 27v20c-31 9-61-2-59-35zM48-53c0 20 12 33 32 33 41-3 63-29 60-74-43 2-92-5-92 41" id="C"/><path fill="#333" d="M59-47c-2 24 18 29 38 22v24C64 9 27 4 27-40v-127H5v-23h24l9-43h21v43h35v23H59v120" id="D"/><path fill="#333" d="M84 4C-5 8 30-112 23-190h32v120c0 31 7 50 39 49 72-2 45-101 50-169h31l1 190h-30c-1-10 1-25-2-33-11 22-28 36-60 37" id="E"/><path fill="#333" d="M114-163C36-179 61-72 57 0H25l-1-190h30c1 12-1 29 2 39 6-27 23-49 58-41v29" id="F"/><path fill="#333" d="M240 0l2-218c-23 76-54 145-80 218h-23L58-218 59 0H30v-248h44l77 211c21-75 51-140 76-211h43V0h-30" id="G"/><path fill="#333" d="M24-231v-30h32v30H24zM24 0v-190h32V0H24" id="H"/><path fill="#333" d="M141 0L90-78 38 0H4l68-98-65-92h35l48 74 47-74h35l-64 92 68 98h-35" id="I"/><g id="b"><use transform="matrix(0.055555555555555546,0,0,0.055555555555555546,0,0)" xlink:href="#A"/><use transform="matrix(0.055555555555555546,0,0,0.055555555555555546,12.166666666666664,0)" xlink:href="#B"/><use transform="matrix(0.055555555555555546,0,0,0.055555555555555546,23.27777777777777,0)" xlink:href="#C"/><use transform="matrix(0.055555555555555546,0,0,0.055555555555555546,34.38888888888888,0)" xlink:href="#D"/><use transform="matrix(0.055555555555555546,0,0,0.055555555555555546,39.944444444444436,0)" xlink:href="#E"/><use transform="matrix(0.055555555555555546,0,0,0.055555555555555546,51.05555555555554,0)" xlink:href="#F"/><use transform="matrix(0.055555555555555546,0,0,0.055555555555555546,57.66666666666666,0)" xlink:href="#B"/><use transform="matrix(0.055555555555555546,0,0,0.055555555555555546,68.77777777777776,0)" xlink:href="#G"/><use transform="matrix(0.055555555555555546,0,0,0.055555555555555546,85.38888888888886,0)" xlink:href="#C"/><use transform="matrix(0.055555555555555546,0,0,0.055555555555555546,96.49999999999997,0)" xlink:href="#D"/><use transform="matrix(0.055555555555555546,0,0,0.055555555555555546,102.05555555555553,0)" xlink:href="#F"/><use transform="matrix(0.055555555555555546,0,0,0.055555555555555546,108.66666666666664,0)" xlink:href="#H"/><use transform="matrix(0.055555555555555546,0,0,0.055555555555555546,113.05555555555553,0)" xlink:href="#I"/></g><path fill="#333" d="M24-248c93 1 206-16 204 79-1 75-69 88-152 82V0H24v-248zm52 121c47 0 100 7 100-41 0-47-54-39-100-39v80" id="J"/><path fill="#333" d="M190-63c-7 42-38 67-86 67-59 0-84-38-90-98-12-110 154-137 174-36l-49 2c-2-19-15-32-35-32-30 0-35 28-38 64-6 74 65 87 74 30" id="K"/><path fill="#333" d="M85 4C-2 5 27-109 22-190h50c7 57-23 150 33 157 60-5 35-97 40-157h50l1 190h-47c-2-12 1-28-3-38-12 25-28 42-61 42" id="L"/><g id="c"><use transform="matrix(0.05555555555555554,0,0,0.05555555555555554,0,0)" xlink:href="#J"/><use transform="matrix(0.05555555555555554,0,0,0.05555555555555554,13.333333333333329,0)" xlink:href="#t"/><use transform="matrix(0.05555555555555554,0,0,0.05555555555555554,21.111111111111104,0)" xlink:href="#z"/><use transform="matrix(0.05555555555555554,0,0,0.05555555555555554,32.222222222222214,0)" xlink:href="#K"/><use transform="matrix(0.05555555555555554,0,0,0.05555555555555554,43.33333333333332,0)" xlink:href="#L"/><use transform="matrix(0.05555555555555554,0,0,0.05555555555555554,55.499999999999986,0)" xlink:href="#t"/><use transform="matrix(0.05555555555555554,0,0,0.05555555555555554,63.27777777777776,0)" xlink:href="#v"/><use transform="matrix(0.05555555555555554,0,0,0.05555555555555554,74.38888888888886,0)" xlink:href="#x"/><use transform="matrix(0.05555555555555554,0,0,0.05555555555555554,86.55555555555551,0)" xlink:href="#t"/></g><path fill="#333" d="M115-3C79 11 28 4 28-45v-112H4v-33h27l15-45h31v45h36v33H77v99c-1 23 16 31 38 25v30" id="M"/><path fill="#333" d="M25-224v-37h50v37H25zM25 0v-190h50V0H25" id="N"/><g id="d"><use transform="matrix(0.05555555555555554,0,0,0.05555555555555554,0,0)" xlink:href="#K"/><use transform="matrix(0.05555555555555554,0,0,0.05555555555555554,11.111111111111107,0)" xlink:href="#x"/><use transform="matrix(0.05555555555555554,0,0,0.05555555555555554,23.27777777777777,0)" xlink:href="#t"/><use transform="matrix(0.05555555555555554,0,0,0.05555555555555554,31.055555555555546,0)" xlink:href="#t"/><use transform="matrix(0.05555555555555554,0,0,0.05555555555555554,38.83333333333332,0)" xlink:href="#z"/><use transform="matrix(0.05555555555555554,0,0,0.05555555555555554,49.94444444444443,0)" xlink:href="#K"/><use transform="matrix(0.05555555555555554,0,0,0.05555555555555554,61.055555555555536,0)" xlink:href="#M"/><use transform="matrix(0.05555555555555554,0,0,0.05555555555555554,67.66666666666664,0)" xlink:href="#N"/><use transform="matrix(0.05555555555555554,0,0,0.05555555555555554,73.2222222222222,0)" xlink:href="#x"/><use transform="matrix(0.05555555555555554,0,0,0.05555555555555554,85.38888888888886,0)" xlink:href="#u"/></g><path fill="#333" d="M67-93c0 74 22 123 53 168H70C40 30 18-18 18-93s22-123 52-168h50c-32 44-53 94-53 168" id="O"/><path fill="#333" d="M186 0v-106H76V0H24v-248h52v99h110v-99h50V0h-50" id="P"/><path fill="#333" d="M195-6C206 82 75 100 31 46c-4-6-6-13-8-21l49-6c3 16 16 24 34 25 40 0 42-37 40-79-11 22-30 35-61 35-53 0-70-43-70-97 0-56 18-96 73-97 30 0 46 14 59 34l2-30h47zm-90-29c32 0 41-27 41-63 0-35-9-62-40-62-32 0-39 29-40 63 0 36 9 62 39 62" id="Q"/><path fill="#333" d="M114-157C55-157 80-60 75 0H25v-261h50l-1 109c12-26 28-41 61-42 86-1 58 113 63 194h-50c-7-57 23-157-34-157" id="R"/><g id="e"><use transform="matrix(0.05555555555555554,0,0,0.05555555555555554,0,0)" xlink:href="#O"/><use transform="matrix(0.05555555555555554,0,0,0.05555555555555554,6.611111111111109,0)" xlink:href="#P"/><use transform="matrix(0.05555555555555554,0,0,0.05555555555555554,20.999999999999993,0)" xlink:href="#N"/><use transform="matrix(0.05555555555555554,0,0,0.05555555555555554,26.555555555555546,0)" xlink:href="#Q"/><use transform="matrix(0.05555555555555554,0,0,0.05555555555555554,38.72222222222221,0)" xlink:href="#R"/><use transform="matrix(0.05555555555555554,0,0,0.05555555555555554,50.88888888888887,0)" xlink:href="#z"/><use transform="matrix(0.05555555555555554,0,0,0.05555555555555554,61.99999999999998,0)" xlink:href="#v"/><use transform="matrix(0.05555555555555554,0,0,0.05555555555555554,73.11111111111109,0)" xlink:href="#M"/></g><path fill="#333" d="M123 10C108 53 80 86 19 72V37c35 8 53-11 59-39L3-190h52l48 148c12-52 28-100 44-148h51" id="S"/><path fill="#333" d="M102-93c0 74-22 123-52 168H0C30 29 54-18 53-93c0-74-22-123-53-168h50c30 45 52 94 52 168" id="T"/><g id="f"><use transform="matrix(0.05555555555555554,0,0,0.05555555555555554,0,0)" xlink:href="#N"/><use transform="matrix(0.05555555555555554,0,0,0.05555555555555554,5.555555555555554,0)" xlink:href="#u"/><use transform="matrix(0.05555555555555554,0,0,0.05555555555555554,17.722222222222214,0)" xlink:href="#M"/><use transform="matrix(0.05555555555555554,0,0,0.05555555555555554,24.33333333333332,0)" xlink:href="#z"/><use transform="matrix(0.05555555555555554,0,0,0.05555555555555554,35.44444444444443,0)" xlink:href="#u"/><use transform="matrix(0.05555555555555554,0,0,0.05555555555555554,47.61111111111109,0)" xlink:href="#v"/><use transform="matrix(0.05555555555555554,0,0,0.05555555555555554,58.72222222222221,0)" xlink:href="#N"/><use transform="matrix(0.05555555555555554,0,0,0.05555555555555554,64.27777777777776,0)" xlink:href="#M"/><use transform="matrix(0.05555555555555554,0,0,0.05555555555555554,70.88888888888887,0)" xlink:href="#S"/><use transform="matrix(0.05555555555555554,0,0,0.05555555555555554,81.99999999999997,0)" xlink:href="#T"/></g><path fill="#282c33" d="M76-208v77h127v40H76V0H24v-248h183v40H76" id="U"/><path fill="#282c33" d="M185-48c-13 30-37 53-82 52C43 2 14-33 14-96s30-98 90-98c62 0 83 45 84 108H66c0 31 8 55 39 56 18 0 30-7 34-22zm-45-69c5-46-57-63-70-21-2 6-4 13-4 21h74" id="V"/><path fill="#282c33" d="M133-34C117-15 103 5 69 4 32 3 11-16 11-54c-1-60 55-63 116-61 1-26-3-47-28-47-18 1-26 9-28 27l-52-2c7-38 36-58 82-57s74 22 75 68l1 82c-1 14 12 18 25 15v27c-30 8-71 5-69-32zm-48 3c29 0 43-24 42-57-32 0-66-3-65 30 0 17 8 27 23 27" id="W"/><path fill="#282c33" d="M115-3C79 11 28 4 28-45v-112H4v-33h27l15-45h31v45h36v33H77v99c-1 23 16 31 38 25v30" id="X"/><path fill="#282c33" d="M85 4C-2 5 27-109 22-190h50c7 57-23 150 33 157 60-5 35-97 40-157h50l1 190h-47c-2-12 1-28-3-38-12 25-28 42-61 42" id="Y"/><path fill="#282c33" d="M135-150c-39-12-60 13-60 57V0H25l-1-190h47c2 13-1 29 3 40 6-28 27-53 61-41v41" id="Z"/><g id="g"><use transform="matrix(0.05555555555555554,0,0,0.05555555555555554,0,0)" xlink:href="#U"/><use transform="matrix(0.05555555555555554,0,0,0.05555555555555554,12.166666666666663,0)" xlink:href="#V"/><use transform="matrix(0.05555555555555554,0,0,0.05555555555555554,23.27777777777777,0)" xlink:href="#W"/><use transform="matrix(0.05555555555555554,0,0,0.05555555555555554,34.38888888888888,0)" xlink:href="#X"/><use transform="matrix(0.05555555555555554,0,0,0.05555555555555554,40.999999999999986,0)" xlink:href="#Y"/><use transform="matrix(0.05555555555555554,0,0,0.05555555555555554,53.16666666666665,0)" xlink:href="#Z"/><use transform="matrix(0.05555555555555554,0,0,0.05555555555555554,60.94444444444443,0)" xlink:href="#V"/></g><path fill="#282c33" d="M24-248c120-7 223 5 221 122C244-46 201 0 124 0H24v-248zM76-40c74 7 117-18 117-86 0-67-45-88-117-82v168" id="aa"/><path fill="#282c33" d="M190-63c-7 42-38 67-86 67-59 0-84-38-90-98-12-110 154-137 174-36l-49 2c-2-19-15-32-35-32-30 0-35 28-38 64-6 74 65 87 74 30" id="ab"/><path fill="#282c33" d="M25-224v-37h50v37H25zM25 0v-190h50V0H25" id="ac"/><path fill="#282c33" d="M110-194c64 0 96 36 96 99 0 64-35 99-97 99-61 0-95-36-95-99 0-62 34-99 96-99zm-1 164c35 0 45-28 45-65 0-40-10-65-43-65-34 0-45 26-45 65 0 36 10 65 43 65" id="ad"/><path fill="#282c33" d="M135-194c87-1 58 113 63 194h-50c-7-57 23-157-34-157-59 0-34 97-39 157H25l-1-190h47c2 12-1 28 3 38 12-26 28-41 61-42" id="ae"/><g id="h"><use transform="matrix(0.05555555555555554,0,0,0.05555555555555554,0,0)" xlink:href="#aa"/><use transform="matrix(0.05555555555555554,0,0,0.05555555555555554,14.388888888888884,0)" xlink:href="#V"/><use transform="matrix(0.05555555555555554,0,0,0.05555555555555554,25.499999999999993,0)" xlink:href="#X"/><use transform="matrix(0.05555555555555554,0,0,0.05555555555555554,32.1111111111111,0)" xlink:href="#V"/><use transform="matrix(0.05555555555555554,0,0,0.05555555555555554,43.22222222222221,0)" xlink:href="#ab"/><use transform="matrix(0.05555555555555554,0,0,0.05555555555555554,54.333333333333314,0)" xlink:href="#X"/><use transform="matrix(0.05555555555555554,0,0,0.05555555555555554,60.94444444444443,0)" xlink:href="#ac"/><use transform="matrix(0.05555555555555554,0,0,0.05555555555555554,66.49999999999997,0)" xlink:href="#ad"/><use transform="matrix(0.05555555555555554,0,0,0.05555555555555554,78.66666666666663,0)" xlink:href="#ae"/></g><g id="i"><use transform="matrix(0.05555555555555554,0,0,0.05555555555555554,0,0)" xlink:href="#O"/><use transform="matrix(0.05555555555555554,0,0,0.05555555555555554,6.611111111111109,0)" xlink:href="#p"/><use transform="matrix(0.05555555555555554,0,0,0.05555555555555554,23.222222222222214,0)" xlink:href="#x"/><use transform="matrix(0.05555555555555554,0,0,0.05555555555555554,35.38888888888888,0)" xlink:href="#u"/><use transform="matrix(0.05555555555555554,0,0,0.05555555555555554,47.55555555555554,0)" xlink:href="#x"/><use transform="matrix(0.05555555555555554,0,0,0.05555555555555554,59.72222222222221,0)" xlink:href="#N"/><use transform="matrix(0.05555555555555554,0,0,0.05555555555555554,65.27777777777776,0)" xlink:href="#v"/><use transform="matrix(0.05555555555555554,0,0,0.05555555555555554,76.38888888888886,0)" xlink:href="#x"/><use transform="matrix(0.05555555555555554,0,0,0.05555555555555554,88.55555555555551,0)" xlink:href="#M"/><use transform="matrix(0.05555555555555554,0,0,0.05555555555555554,95.16666666666663,0)" xlink:href="#x"/><use transform="matrix(0.05555555555555554,0,0,0.05555555555555554,107.33333333333329,0)" xlink:href="#r"/><use transform="matrix(0.05555555555555554,0,0,0.05555555555555554,119.49999999999994,0)" xlink:href="#N"/><use transform="matrix(0.05555555555555554,0,0,0.05555555555555554,125.05555555555549,0)" xlink:href="#K"/><use transform="matrix(0.05555555555555554,0,0,0.05555555555555554,136.1666666666666,0)" xlink:href="#T"/></g><path fill="#282c33" d="M24 0v-248h52v208h133V0H24" id="af"/><path fill="#282c33" d="M147 0L96-86 75-71V0H25v-261h50v150l67-79h53l-66 74L201 0h-54" id="ag"/><path fill="#282c33" d="M195-6C206 82 75 100 31 46c-4-6-6-13-8-21l49-6c3 16 16 24 34 25 40 0 42-37 40-79-11 22-30 35-61 35-53 0-70-43-70-97 0-56 18-96 73-97 30 0 46 14 59 34l2-30h47zm-90-29c32 0 41-27 41-63 0-35-9-62-40-62-32 0-39 29-40 63 0 36 9 62 39 62" id="ah"/><g id="j"><use transform="matrix(0.055555555555555546,0,0,0.055555555555555546,0,0)" xlink:href="#U"/><use transform="matrix(0.055555555555555546,0,0,0.055555555555555546,12.166666666666664,0)" xlink:href="#V"/><use transform="matrix(0.055555555555555546,0,0,0.055555555555555546,23.27777777777777,0)" xlink:href="#W"/><use transform="matrix(0.055555555555555546,0,0,0.055555555555555546,34.38888888888888,0)" xlink:href="#X"/><use transform="matrix(0.055555555555555546,0,0,0.055555555555555546,40.999999999999986,0)" xlink:href="#Y"/><use transform="matrix(0.055555555555555546,0,0,0.055555555555555546,53.16666666666665,0)" xlink:href="#Z"/><use transform="matrix(0.055555555555555546,0,0,0.055555555555555546,60.944444444444436,0)" xlink:href="#V"/><use transform="matrix(0.055555555555555546,0,0,0.055555555555555546,72.05555555555554,0)" xlink:href="#af"/><use transform="matrix(0.055555555555555546,0,0,0.055555555555555546,84.2222222222222,0)" xlink:href="#ac"/><use transform="matrix(0.055555555555555546,0,0,0.055555555555555546,89.77777777777776,0)" xlink:href="#ae"/><use transform="matrix(0.055555555555555546,0,0,0.055555555555555546,101.94444444444443,0)" xlink:href="#ag"/><use transform="matrix(0.055555555555555546,0,0,0.055555555555555546,113.05555555555554,0)" xlink:href="#ac"/><use transform="matrix(0.055555555555555546,0,0,0.055555555555555546,118.61111111111109,0)" xlink:href="#ae"/><use transform="matrix(0.055555555555555546,0,0,0.055555555555555546,130.77777777777777,0)" xlink:href="#ah"/></g><path fill="#333" d="M199 0l-22-63H83L61 0H9l90-248h61L250 0h-51zm-33-102l-36-108c-10 38-24 72-36 108h72" id="ai"/><path fill="#333" d="M88-194c31-1 46 15 58 34l-1-101h50l1 261h-48c-2-10 0-23-3-31C134-8 116 4 84 4 32 4 16-41 15-95c0-56 19-97 73-99zm17 164c33 0 40-30 41-66 1-37-9-64-41-64s-38 30-39 65c0 43 13 65 39 65" id="aj"/><g id="k"><use transform="matrix(0.055555555555555546,0,0,0.055555555555555546,0,0)" xlink:href="#ai"/><use transform="matrix(0.055555555555555546,0,0,0.055555555555555546,14.388888888888886,0)" xlink:href="#aj"/><use transform="matrix(0.055555555555555546,0,0,0.055555555555555546,26.55555555555555,0)" xlink:href="#aj"/><use transform="matrix(0.055555555555555546,0,0,0.055555555555555546,38.722222222222214,0)" xlink:href="#L"/><use transform="matrix(0.055555555555555546,0,0,0.055555555555555546,50.88888888888888,0)" xlink:href="#K"/><use transform="matrix(0.055555555555555546,0,0,0.055555555555555546,61.999999999999986,0)" xlink:href="#M"/></g><g id="l"><use transform="matrix(0.055555555555555546,0,0,0.055555555555555546,0,0)" xlink:href="#q"/><use transform="matrix(0.055555555555555546,0,0,0.055555555555555546,11.111111111111109,0)" xlink:href="#u"/><use transform="matrix(0.055555555555555546,0,0,0.055555555555555546,23.27777777777777,0)" xlink:href="#u"/><use transform="matrix(0.055555555555555546,0,0,0.055555555555555546,35.444444444444436,0)" xlink:href="#x"/><use transform="matrix(0.055555555555555546,0,0,0.055555555555555546,47.6111111111111,0)" xlink:href="#M"/><use transform="matrix(0.055555555555555546,0,0,0.055555555555555546,54.22222222222221,0)" xlink:href="#q"/><use transform="matrix(0.055555555555555546,0,0,0.055555555555555546,65.33333333333331,0)" xlink:href="#M"/><use transform="matrix(0.055555555555555546,0,0,0.055555555555555546,71.94444444444443,0)" xlink:href="#N"/><use transform="matrix(0.055555555555555546,0,0,0.055555555555555546,77.49999999999999,0)" xlink:href="#x"/><use transform="matrix(0.055555555555555546,0,0,0.055555555555555546,89.66666666666666,0)" xlink:href="#u"/><use transform="matrix(0.055555555555555546,0,0,0.055555555555555546,101.83333333333331,0)" xlink:href="#v"/></g><path fill="#282c33" d="M230 0l2-204L168 0h-37L68-204 70 0H24v-248h70l56 185 57-185h69V0h-46" id="ak"/><path fill="#282c33" d="M135-194c53 0 70 44 70 98 0 56-19 98-73 100-31 1-45-17-59-34 3 33 2 69 2 105H25l-1-265h48c2 10 0 23 3 31 11-24 29-35 60-35zM114-30c33 0 39-31 40-66 0-38-9-64-40-64-56 0-55 130 0 130" id="al"/><path fill="#282c33" d="M199 0l-22-63H83L61 0H9l90-248h61L250 0h-51zm-33-102l-36-108c-10 38-24 72-36 108h72" id="am"/><path fill="#282c33" d="M25 0v-261h50V0H25" id="an"/><g id="m"><use transform="matrix(0.055555555555555546,0,0,0.055555555555555546,0,0)" xlink:href="#ak"/><use transform="matrix(0.055555555555555546,0,0,0.055555555555555546,16.611111111111107,0)" xlink:href="#W"/><use transform="matrix(0.055555555555555546,0,0,0.055555555555555546,27.722222222222214,0)" xlink:href="#al"/><use transform="matrix(0.055555555555555546,0,0,0.055555555555555546,39.88888888888888,0)" xlink:href="#am"/><use transform="matrix(0.055555555555555546,0,0,0.055555555555555546,54.277777777777764,0)" xlink:href="#an"/><use transform="matrix(0.055555555555555546,0,0,0.055555555555555546,59.83333333333332,0)" xlink:href="#ac"/><use transform="matrix(0.055555555555555546,0,0,0.055555555555555546,65.38888888888887,0)" xlink:href="#ah"/><use transform="matrix(0.055555555555555546,0,0,0.055555555555555546,77.55555555555554,0)" xlink:href="#ae"/><use transform="matrix(0.055555555555555546,0,0,0.055555555555555546,89.7222222222222,0)" xlink:href="#V"/><use transform="matrix(0.055555555555555546,0,0,0.055555555555555546,100.83333333333331,0)" xlink:href="#Z"/></g><path fill="#282c33" d="M169-182c-1-43-94-46-97-3 18 66 151 10 154 114 3 95-165 93-204 36-6-8-10-19-12-30l50-8c3 46 112 56 116 5-17-69-150-10-154-114-4-87 153-88 188-35 5 8 8 18 10 28" id="ao"/><path fill="#282c33" d="M4 7l51-268h42L46 7H4" id="ap"/><g id="n"><use transform="matrix(0.055555555555555546,0,0,0.055555555555555546,0,0)" xlink:href="#ak"/><use transform="matrix(0.055555555555555546,0,0,0.055555555555555546,16.611111111111107,0)" xlink:href="#ao"/><use transform="matrix(0.055555555555555546,0,0,0.055555555555555546,29.944444444444432,0)" xlink:href="#ap"/><use transform="matrix(0.055555555555555546,0,0,0.055555555555555546,35.49999999999999,0)" xlink:href="#ak"/><use transform="matrix(0.055555555555555546,0,0,0.055555555555555546,52.1111111111111,0)" xlink:href="#ao"/></g><path fill="#282c33" d="M137-138c1-29-70-34-71-4 15 46 118 7 119 86 1 83-164 76-172 9l43-7c4 19 20 25 44 25 33 8 57-30 24-41C81-84 22-81 20-136c-2-80 154-74 161-7" id="aq"/><g id="o"><use transform="matrix(0.055555555555555546,0,0,0.055555555555555546,0,0)" xlink:href="#W"/><use transform="matrix(0.055555555555555546,0,0,0.055555555555555546,11.111111111111109,0)" xlink:href="#ae"/><use transform="matrix(0.055555555555555546,0,0,0.055555555555555546,23.27777777777777,0)" xlink:href="#ae"/><use transform="matrix(0.055555555555555546,0,0,0.055555555555555546,35.444444444444436,0)" xlink:href="#ad"/><use transform="matrix(0.055555555555555546,0,0,0.055555555555555546,47.6111111111111,0)" xlink:href="#X"/><use transform="matrix(0.055555555555555546,0,0,0.055555555555555546,54.22222222222221,0)" xlink:href="#W"/><use transform="matrix(0.055555555555555546,0,0,0.055555555555555546,65.33333333333331,0)" xlink:href="#X"/><use transform="matrix(0.055555555555555546,0,0,0.055555555555555546,71.94444444444443,0)" xlink:href="#ac"/><use transform="matrix(0.055555555555555546,0,0,0.055555555555555546,77.49999999999999,0)" xlink:href="#ad"/><use transform="matrix(0.055555555555555546,0,0,0.055555555555555546,89.66666666666666,0)" xlink:href="#ae"/><use transform="matrix(0.055555555555555546,0,0,0.055555555555555546,101.83333333333331,0)" xlink:href="#aq"/></g></defs></g></svg>